<?xml version="1.0" encoding="UTF-8" standalone="no"?>
<!-- Created with Inkscape (http://www.inkscape.org/) -->

<svg
   xmlns:dc="http://purl.org/dc/elements/1.1/"
   xmlns:cc="http://creativecommons.org/ns#"
   xmlns:rdf="http://www.w3.org/1999/02/22-rdf-syntax-ns#"
   xmlns:svg="http://www.w3.org/2000/svg"
   xmlns="http://www.w3.org/2000/svg"
   xmlns:xlink="http://www.w3.org/1999/xlink"
   xmlns:sodipodi="http://sodipodi.sourceforge.net/DTD/sodipodi-0.dtd"
   xmlns:inkscape="http://www.inkscape.org/namespaces/inkscape"
   width="24"
   height="24"
   id="svg2"
   version="1.1"
   inkscape:version="0.48.5 r10040"
   sodipodi:docname="FreeEVA.svg"
   inkscape:export-filename="/home/bill/ksp/src/FreeEVA/FreeEVA.png"
   inkscape:export-xdpi="90"
   inkscape:export-ydpi="90">
  <defs
     id="defs4" />
  <sodipodi:namedview
     id="base"
     pagecolor="#000000"
     bordercolor="#666666"
     borderopacity="1.0"
     inkscape:pageopacity="0.05098039"
     inkscape:pageshadow="2"
     inkscape:zoom="25.411429"
     inkscape:cx="11.797105"
     inkscape:cy="10.949105"
     inkscape:document-units="px"
     inkscape:current-layer="layer1"
     showgrid="false"
     inkscape:window-width="1065"
     inkscape:window-height="751"
     inkscape:window-x="0"
     inkscape:window-y="0"
     inkscape:window-maximized="0" />
  <metadata
     id="metadata7">
    <rdf:RDF>
      <cc:Work
         rdf:about="">
        <dc:format>image/svg+xml</dc:format>
        <dc:type
           rdf:resource="http://purl.org/dc/dcmitype/StillImage" />
        <dc:title></dc:title>
      </cc:Work>
    </rdf:RDF>
  </metadata>
  <g
     inkscape:label="Layer 1"
     inkscape:groupmode="layer"
     id="layer1"
     transform="translate(0,-1028.3622)">
    <image
       y="-21.923529"
       x="-548.57141"
       id="image3082"
       xlink:href="file:///home/bill/ksp/Screenshots/screenshot2412.png"
       height="1080"
       width="1920"
       style="display:none" />
    <path
       style="fill:#ffffff;stroke:#ffffff;stroke-width:0.15976137px;stroke-linecap:butt;stroke-linejoin:miter;stroke-opacity:1"
       d="m 17.576981,1037.1798 c -0.0028,0.4391 -0.0057,0.4362 -0.0428,0.8273 0.810029,-0.1279 1.191927,-0.027 1.887478,0.036 0.380346,0.1951 0.444342,0.4223 0.771556,0.6147 0.669136,-0.5244 2.108468,-0.4649 2.407001,0.3914 -0.488344,0.5913 -1.37956,0.8576 -2.037511,1.3058 -0.649835,0.4427 -0.530835,1.7723 -1.306902,1.5311 -0.604408,-0.4211 -0.90733,-1.2846 -1.0805,-1.5158 -0.344779,0.3439 -0.382236,0.1591 -0.356032,0.7308 0.4848,0.4284 0.5473,2.816 -0.736599,2.7796 l -0.005,0.6681 -3.283809,-0.02 -0.352133,-2.0286 -0.999341,0.6153 c -0.638838,1.6789 -1.862059,2.1818 -4.0052608,2.2366 -1.8717822,-0.024 -4.4337708,-0.7348 -5.5912442,-2.9581 -0.715679,-1.293 -0.9397921,-3.5213 -0.03744,-5.145 1.0927591,0.068 2.9653429,0.047 3.9920649,-0.047 1.1405123,-0.4828 2.6861612,-0.1694 4.4000441,-0.3166 0.527516,-0.2484 0.693135,-1.1349 0.693565,-1.9353 1.056746,-0.1767 1.202395,2.0464 1.202395,2.0464 l 0.862207,-0.027 c 0,0 -0.02395,1.4003 -0.02966,1.8251 0.336631,-0.4027 0.423511,-0.3135 0.83974,-0.5873 -0.08556,-0.721 0.161745,-1.2312 0.383598,-2.0002 0.0688,-0.4383 0.52147,-0.5093 1.092946,-0.607 0.09375,-0.2888 0.106848,-0.3163 0.36662,-0.7792 0.529557,0.03 0.382963,0.091 0.793074,0.1215 -0.0294,0.8244 0.03262,1.461 7.92e-4,2.2089 z"
       id="path3085"
       inkscape:connector-curvature="0"
       sodipodi:nodetypes="cccccscccccccccccccccccccccccc" />
    <path
       style="fill:none;stroke:#ffffff;stroke-width:0.55649841;stroke-linecap:butt;stroke-linejoin:miter;stroke-miterlimit:4;stroke-opacity:1;stroke-dasharray:none"
       d="m 3.1640355,1037.3658 c 1.2652015,-2.6462 6.211701,-3.852 8.7218805,-2.3386"
       id="path3089"
       inkscape:connector-curvature="0"
       sodipodi:nodetypes="cc" />
    <path
       style="fill:none;stroke:#ffffff;stroke-width:0.55649841;stroke-linecap:butt;stroke-linejoin:miter;stroke-miterlimit:4;stroke-opacity:1;stroke-dasharray:none"
       d="m 12.012248,1043.4941 c 0.02156,5.3249 2.936257,5.466 2.346191,0.9744"
       id="path3094"
       inkscape:connector-curvature="0"
       sodipodi:nodetypes="cc" />
  </g>
</svg>
